<?xml version="1.0" encoding="utf-8"?>
<svg version="1.0" xmlns="http://www.w3.org/2000/svg" width="971px" height="971px" viewBox="0 0 971 971" preserveAspectRatio="xMidYMid meet">
  <g fill="#f7f9f9">
    <path d="M581.8 932.5 c-0.2 -0.3 -4.2 -0.9 -8.9 -1.5 -4.6 -0.5 -10.4 -1.4 -12.9 -2 -2.5 -0.6 -7.1 -1.7 -10.2 -2.3 -3.1 -0.7 -6 -1.5 -6.4 -1.9 -0.4 -0.5 -2 -0.8 -3.5 -0.8 l-2.7 0 -8.9 -3 c-4.8 -1.7 -9.7 -3.5 -10.8 -3.9 -1.1 -0.5 -3.6 -1.6 -5.5 -2.4 -1.9 -0.8 -5.3 -2 -7.5 -2.7 -4.8 -1.5 -16.9 -7 -31.9 -14.6 l-10.9 -5.5 -9.8 -6.5 c-5.4 -3.5 -10.2 -6.4 -10.7 -6.4 -0.5 0 -1.6 -0.7 -2.3 -1.6 -0.7 -0.9 -2.2 -2 -3.4 -2.4 -1.1 -0.4 -6.9 -4.4 -12.8 -8.9 -5.9 -4.4 -11.1 -8.1 -11.5 -8.1 -0.4 0 -2.7 -2.1 -5.1 -4.5 l-4.5 -4.5 -1.3 0 c-0.7 0 -4.1 -1.7 -7.5 -3.8 -3.5 -2.1 -9 -5.4 -12.3 -7.2 -7.4 -4.1 -31.3 -19.8 -35.7 -23.5 -1.8 -1.5 -5.7 -4.4 -8.6 -6.5 -13.3 -9.6 -48.8 -41.1 -59.1 -52.6 -2.4 -2.7 -7.2 -7.8 -10.5 -11.4 -3.4 -3.6 -9.2 -10.2 -13 -14.7 -3.8 -4.5 -7.1 -8.3 -7.5 -8.5 -0.3 -0.2 -2.6 -3 -5.1 -6.3 -2.4 -3.3 -5.2 -6.9 -6.2 -8 -3.9 -4.5 -15.1 -19 -18.9 -24.3 -2.2 -3.1 -5.9 -8.4 -8.2 -11.7 -15.9 -22.1 -43 -65 -58.2 -92 -5 -8.8 -24.2 -46.9 -25 -49.5 -0.4 -1.4 -2.3 -5.9 -4.2 -10 -1.9 -4.1 -4 -8.8 -4.8 -10.5 -0.7 -1.6 -2.7 -5.9 -4.3 -9.5 -1.6 -3.6 -3.7 -8.8 -4.6 -11.5 -0.9 -2.8 -2.1 -5.9 -2.6 -7 -0.5 -1.1 -1.8 -4.9 -3 -8.5 -1.2 -3.6 -2.7 -7.6 -3.4 -9 -0.8 -1.4 -1.7 -4.1 -2 -6 -0.4 -1.9 -1.1 -4.4 -1.5 -5.5 -1.5 -3.8 -3.2 -9 -3.6 -11 -1.3 -6.5 -1.7 -8.2 -2.5 -10 -2.4 -6 -4 -11.4 -4 -13.7 l0 -2.6 -2 -4.6 -1.9 -4.6 0.5 -1.5 0.6 -1.5 -1.6 -4 -1.6 -4 0 -4.3 0 -4.2 -1.1 -3.5 c-1.4 -4.6 -2.9 -13.2 -3.4 -20 -0.9 -10.3 -1.2 -12.5 -2 -16.4 -0.8 -3.9 -1.5 -22.7 -1.3 -34.6 0.1 -3.6 0.1 -7.6 0.1 -9 0 -2.2 0.4 -7.9 2.2 -29 0.3 -3 0.5 -6.2 0.6 -7 0 -0.8 0.4 -2.4 0.9 -3.5 0.4 -1.1 1.6 -6.3 2.5 -11.5 1 -5.2 2.4 -11.5 3.1 -14 0.8 -2.5 2.1 -7 3 -10 0.9 -3 2 -6.3 2.5 -7.2 0.5 -1 0.9 -2.3 0.9 -2.8 0 -0.6 0.9 -3 2 -5.2 1.1 -2.3 2 -4.6 2 -5.1 0 -1.8 10.3 -22.1 15.9 -31.2 9.8 -16.1 18.7 -27.2 33.1 -41.1 11.8 -11.4 15.8 -14.6 32.5 -25.8 22.2 -14.8 51.6 -27.8 79.5 -35.1 3.6 -0.9 7.2 -1.9 8 -2.2 1.6 -0.6 2.6 -0.9 8 -1.7 1.9 -0.3 4.9 -0.9 6.5 -1.2 1.7 -0.3 7.7 -1.1 13.5 -1.8 l10.5 -1.3 14 -0.2 14 -0.1 15 1.4 c15.7 1.6 27 3.7 33.3 6.1 2 0.8 6 1.8 8.7 2.4 2.8 0.5 8.2 2.1 12 3.6 3.9 1.5 7.9 2.9 9 3.2 2 0.5 4.3 1.3 10 3.8 1.7 0.7 4.6 1.8 6.5 2.5 6.9 2.4 10.1 3.9 26.5 12.5 11.5 6 17.4 9.5 22.6 13.2 2.6 1.8 4.9 3.3 5.2 3.3 1 0 16.1 10.7 29.2 20.8 11 8.3 22.1 18 38.1 33.3 3.4 3.3 6.5 5.9 6.9 5.9 0.4 0 4 2.3 7.9 5.2 39.1 28.7 85.3 76.5 115.1 119.3 3.3 4.7 8 11.4 10.5 14.9 2.5 3.5 5.4 7.9 6.5 9.7 3.1 5.2 3.8 6.2 6.8 10 1.5 2 2.7 3.8 2.7 4.1 0 0.3 2.9 5.3 6.5 11.2 3.6 5.8 6.5 11 6.5 11.5 0 0.5 0.6 1.4 1.4 2 0.8 0.7 2.1 2.6 3 4.4 0.9 1.8 3.4 6.1 5.6 9.6 2.2 3.4 4 6.5 4 6.7 0 0.3 1.2 2.3 2.7 4.7 5.2 8.2 7 11.3 11.3 18.7 2.4 4.1 5 8.3 5.9 9.3 l1.5 1.7 -1 1 c-1.1 1.1 -11.5 7.6 -15.6 9.7 -1.5 0.8 -3 1.8 -3.3 2.4 -0.4 0.5 -1.4 0.9 -2.4 0.9 l-1.7 0 -1.2 1.2 c-0.7 0.7 -3.6 2.6 -6.6 4.3 -3 1.6 -8.1 4.6 -11.3 6.5 -3.2 1.9 -7.9 4.6 -10.5 6 -2.5 1.4 -9.5 5.4 -15.5 8.9 -5.9 3.5 -13.3 7.7 -16.3 9.4 -3 1.7 -7.9 4.5 -10.8 6.4 -2.9 1.8 -5.6 3.3 -6.1 3.3 -0.5 0 -1.4 0.7 -2.1 1.5 l-1.2 1.5 -1.5 0 c-0.7 0 -2.6 0.8 -4.1 1.9 -1.5 1 -9.2 5.6 -17.2 10.1 -8 4.6 -16.5 9.5 -19 11.1 -2.5 1.5 -6.2 3.7 -8.2 4.8 -6.6 3.7 -13.9 7.9 -22.8 13.1 -10.5 6.2 -17.3 10 -17.7 10 -0.4 0 -10 5.6 -16.8 9.7 -1.1 0.7 -2.9 1.7 -4 2.2 -1.1 0.6 -4.2 2.4 -7 4.1 -2.7 1.7 -6.3 3.7 -8 4.6 -1.6 0.8 -4.3 2.4 -6 3.4 -1.6 1.1 -4.3 2.7 -6 3.5 -1.6 0.9 -5.2 2.9 -8 4.5 -2.7 1.7 -6.1 3.5 -7.5 4.2 -1.4 0.7 -4.6 2.7 -7.1 4.5 -2.6 1.8 -5 3.3 -5.3 3.3 -0.4 0 -5.2 2.6 -10.6 5.8 -5.5 3.1 -11.2 6.4 -12.7 7.2 -2.8 1.5 -21.4 12.3 -24.3 14.1 -0.8 0.5 -3.5 2 -6 3.4 -2.5 1.4 -5.8 3.4 -7.5 4.5 -1.6 1.1 -4.1 2.5 -5.5 3 -1.4 0.6 -5.6 3.1 -9.5 5.4 -3.8 2.4 -8 4.7 -9.2 5 l-2.3 0.7 0 1 c0 0.5 -0.5 0.9 -1 0.9 -0.6 0 -5 2.3 -9.8 5.1 -4.8 2.8 -9.3 5.4 -10.1 5.8 -0.8 0.4 -1.9 1.4 -2.5 2.3 l-0.9 1.6 7.9 11.6 c4.3 6.4 8.4 12.4 8.9 13.4 0.6 0.9 3 4.3 5.5 7.6 2.5 3.3 5.4 7.4 6.5 9.2 5 7.8 34.6 42.3 45.4 52.8 l9.1 8.8 -0.6 1 -0.6 0.9 1.8 2 1.7 1.9 3 0 3 0 8.6 4.1 c4.7 2.3 9 4.2 9.6 4.4 0.5 0.1 1.9 0.5 3 0.9 1.1 0.5 3.1 1.2 4.5 1.6 1.4 0.4 3.4 1.2 4.5 1.6 1.1 0.4 2.6 0.6 3.3 0.5 0.8 -0.1 1.9 0.2 2.5 0.7 0.7 0.5 2.6 1.2 4.2 1.6 1.7 0.4 4.8 1.1 7 1.7 2.2 0.5 7.4 1.4 11.5 1.9 4.1 0.5 11.1 1.4 15.5 2 l8 1 10 -0.6 c5.5 -0.3 10.9 -0.6 12 -0.5 1 0 2.4 -0.4 3 -0.8 l1 -0.8 4.9 -0.2 4.9 -0.1 1.3 -1 c0.6 -0.6 1.6 -1 2 -0.8 2.1 0.5 11 -1.6 20.5 -4.8 29.2 -10.1 61.1 -29.3 94.4 -56.9 7.9 -6.6 28.3 -26.1 33.9 -32.6 17.7 -20.2 39 -51.2 56 -81.1 1.5 -2.7 2.9 -4.8 3.1 -4.8 0.2 0 2.3 3.3 4.6 7.3 2.3 3.9 6.5 11 9.4 15.7 2.9 4.7 8.5 14.1 12.5 21 4 6.9 8.1 13.7 9.1 15.2 1 1.5 3.1 4.9 4.5 7.5 1.5 2.6 3.9 6.6 5.5 8.7 l2.8 3.9 1 -2.4 c0.6 -1.3 2.2 -4.2 3.6 -6.4 1.4 -2.2 2.7 -4.7 3.1 -5.5 0.3 -0.8 1 -2.3 1.5 -3.3 0.6 -1 1.9 -3.6 3 -5.7 1.1 -2.1 2.6 -4.4 3.3 -5 l1.3 -1 4.3 7.2 c2.4 4 5.6 9.3 7.2 11.8 1.5 2.5 3.6 6.1 4.6 8 0.9 1.9 2.6 4.9 3.8 6.5 1.2 1.7 3.4 5.3 4.9 8 3.1 5.7 12.8 22 18.6 31.4 2.1 3.4 3.9 6.5 3.9 6.8 0 0.3 0.9 1.7 2 3.3 l1.9 2.7 -2.5 4.9 c-1.4 2.7 -2.9 5.6 -3.3 6.4 -0.5 0.8 -2.3 4.4 -4.1 8 -1.8 3.6 -4.1 7.4 -5.1 8.6 l-1.9 2 0 1.6 0 1.5 -2 1.8 c-1.1 1 -2 2.3 -2 2.9 0 0.5 -1.8 3.6 -4 6.7 -2.2 3.2 -4 6 -4 6.3 0 1 -19.7 27.3 -21 28.1 -0.6 0.4 -2.8 3 -4.9 5.8 -9.8 13.3 -54.4 53.4 -69.7 62.7 -2.1 1.3 -4.1 2.7 -4.4 3 -1.2 1.5 -13.9 10 -14.9 10 -0.6 0 -1.1 0.4 -1.1 0.8 0 0.5 -3.4 2.8 -7.6 5.3 -4.1 2.4 -9.2 5.4 -11.2 6.7 -2 1.2 -4.8 2.7 -6 3.2 -1.3 0.6 -7 3.2 -12.5 5.9 -5.6 2.8 -11.4 5.3 -13 5.6 -1.5 0.4 -3 1.1 -3.3 1.6 -0.3 0.5 -1.3 0.9 -2.2 0.9 -0.9 0 -5.8 1.6 -10.7 3.6 l-9 3.5 -10.5 2.5 c-5.8 1.4 -12.3 2.7 -14.5 3 -2.2 0.3 -5.1 0.9 -6.5 1.4 -2.6 0.9 -3.7 1 -10.7 1.3 l-4.1 0.2 -0.8 0.8 -0.7 0.7 -24.7 0 c-13.6 0 -24.9 -0.2 -25.2 -0.5z m-276.5 -470.9 c1.2 -0.7 9.6 -5.2 18.7 -9.9 9.1 -4.7 21.5 -11.1 27.5 -14.3 6.1 -3.2 15.3 -8 20.5 -10.7 8.8 -4.6 16 -8.4 39.5 -20.7 5 -2.6 16.2 -8.4 25 -13 8.8 -4.6 18.7 -9.7 22 -11.5 3.3 -1.8 12.8 -6.7 21 -11 8.3 -4.3 17.9 -9.3 21.3 -11.2 3.5 -1.8 13.4 -7 22 -11.5 18.3 -9.4 24.3 -12.7 25.9 -14 l1.1 -0.9 -7 -11.2 c-13 -20.6 -23.8 -35.3 -42 -57.3 l-11.7 -14.1 -5.1 -4.7 -5.2 -4.6 -0.9 0.5 -0.8 0.6 -1.8 -1 c-1 -0.5 -2.5 -1.2 -3.3 -1.5 -0.8 -0.3 -2.2 -1 -3 -1.4 -4.2 -2.4 -6.1 -3.2 -7.9 -3.2 l-2 0 -0.6 -1 -0.6 -1 -2 0 -2 0 -2.4 -1.6 -2.4 -1.6 -4.7 -0.5 c-2.6 -0.2 -5.9 -1 -7.3 -1.6 l-2.6 -1.1 -8 -0.8 c-13.9 -1.4 -20 -1.1 -42 1.8 -2.2 0.3 -4.7 0.8 -5.5 1.1 -0.8 0.3 -2.2 0.7 -3 0.9 -6.6 1.4 -10.1 2.4 -13.5 3.9 -5.3 2.4 -7.1 3.1 -13.2 5.5 -2.9 1.1 -7 3 -9 4.3 -2.1 1.3 -6.3 3.6 -9.3 5.1 -3 1.5 -8.8 5.3 -12.9 8.3 l-7.4 5.6 -10.4 10.5 c-5.8 5.7 -10.9 11.4 -11.4 12.6 -1.3 2.8 -2.8 5.2 -6.6 10.8 -1.8 2.6 -3.3 5.1 -3.3 5.5 0 0.5 -1.2 3.4 -2.7 6.4 -4.2 8.1 -5.9 12.8 -7.3 19.4 -0.8 3.3 -1.5 6.5 -1.7 7 -0.1 0.6 -1.3 6.4 -2.6 13 l-2.3 12 0.2 6.7 0.2 6.8 -0.8 0.5 -0.8 0.5 1 3.4 1.1 3.4 -0.8 1.9 c-0.5 1 -0.7 2.3 -0.5 2.8 0.1 0.6 0.4 2.8 0.6 5 0.2 2.2 1.2 11.4 2.3 20.6 l1.9 16.5 1.4 3.5 1.5 3.4 -0.5 1.4 -0.4 1.3 1.5 5.2 c0.9 2.8 2.1 7.1 2.7 9.6 0.7 2.5 1.8 5.9 2.5 7.6 0.7 1.7 1.7 5.3 2 8 0.4 2.7 1.1 5.4 1.6 6 l0.9 1.1 11.6 -5.9 c6.4 -3.2 12.6 -6.5 13.7 -7.2z" style="fill: rgb(253, 255, 255);"/>
  </g>
  <g fill="#2c1655">
    <path d="M581.8 932.5 c-0.2 -0.3 -4.2 -0.9 -8.9 -1.5 -4.6 -0.5 -10.4 -1.4 -12.9 -2 -2.5 -0.6 -7.1 -1.7 -10.2 -2.3 -3.1 -0.7 -6 -1.5 -6.4 -1.9 -0.4 -0.5 -2 -0.8 -3.5 -0.8 l-2.7 0 -8.9 -3 c-4.8 -1.7 -9.7 -3.5 -10.8 -3.9 -1.1 -0.5 -3.6 -1.6 -5.5 -2.4 -1.9 -0.8 -5.3 -2 -7.5 -2.7 -4.8 -1.5 -16.9 -7 -31.9 -14.6 l-10.9 -5.5 -9.8 -6.5 c-5.4 -3.5 -10.2 -6.4 -10.7 -6.4 -0.5 0 -1.6 -0.7 -2.3 -1.6 -0.7 -0.9 -2.2 -2 -3.4 -2.4 -1.1 -0.4 -6.9 -4.4 -12.8 -8.9 -5.9 -4.4 -11.1 -8.1 -11.5 -8.1 -0.4 0 -2.5 -1.8 -4.6 -4 l-4 -4 1.2 0 c0.7 0 2 0.4 3 0.9 4.7 2.5 17.3 8.1 21.7 9.7 2.8 0.9 5.5 2.1 6 2.5 1.4 1 25 8.8 29.9 9.9 3.9 0.8 6.4 1.5 15.4 4.1 5 1.4 8.5 2 15.7 2.6 l6 0.5 1 0.9 0.9 0.9 8.1 0 c4.4 0 14.2 0.5 21.9 1 l13.9 1 1.3 -1.1 1.4 -1.2 3.9 0.6 3.8 0.5 6.9 -0.9 c3.8 -0.4 9.1 -1.1 11.8 -1.4 2.7 -0.3 9 -1.5 14 -2.6 5 -1.1 10.2 -2.2 11.6 -2.4 3.8 -0.8 12.5 -3.7 32.5 -10.7 3.5 -1.2 9.5 -3.9 18.1 -7.9 3.3 -1.6 6.4 -2.9 6.8 -2.9 1.2 0 25.7 -14 29.4 -16.8 1.8 -1.4 4.6 -3.2 6.2 -4.1 6.7 -3.6 40.8 -28.6 48.5 -35.6 14.7 -13.3 20.4 -18.5 24.4 -22.5 9.1 -9.1 19.1 -20.8 29.7 -35 9.5 -12.6 12.3 -16.7 17.9 -25.9 0.6 -0.9 1.9 -3 3 -4.6 3.1 -4.7 7.5 -12.2 15.1 -26.3 l2.4 -4.2 -3 -4.9 c-1.7 -2.6 -3 -5.4 -3 -6.2 l0 -1.4 1 1.5 0.9 1.4 1 -2.4 c0.6 -1.4 2.2 -4.3 3.6 -6.5 1.4 -2.2 2.7 -4.7 3.1 -5.5 0.3 -0.8 1 -2.3 1.5 -3.3 0.6 -1 1.9 -3.6 3 -5.7 1.1 -2.1 2.6 -4.4 3.3 -5 l1.3 -1 4.3 7.2 c2.4 4 5.6 9.3 7.2 11.8 1.5 2.5 3.6 6.1 4.6 8 0.9 1.9 2.6 4.9 3.8 6.5 1.2 1.7 3.4 5.3 4.9 8 3.1 5.7 12.8 22 18.6 31.4 2.1 3.4 3.9 6.5 3.9 6.8 0 0.3 0.9 1.7 2 3.3 l1.9 2.7 -2.5 4.9 c-1.4 2.7 -2.9 5.6 -3.3 6.4 -0.5 0.8 -2.3 4.4 -4.1 8 -1.8 3.6 -4.1 7.4 -5.1 8.6 l-1.9 2 0 1.6 0 1.5 -2 1.8 c-1.1 1 -2 2.3 -2 2.9 0 0.5 -1.8 3.6 -4 6.7 -2.2 3.2 -4 6 -4 6.3 0 1 -19.7 27.3 -21 28.1 -0.6 0.4 -2.8 3 -4.9 5.8 -9.8 13.3 -54.4 53.4 -69.7 62.7 -2.1 1.3 -4.1 2.7 -4.4 3 -1.2 1.5 -13.9 10 -14.9 10 -0.6 0 -1.1 0.4 -1.1 0.8 0 0.5 -3.4 2.8 -7.6 5.3 -4.1 2.4 -9.2 5.4 -11.2 6.7 -2 1.2 -4.8 2.7 -6 3.2 -1.3 0.6 -7 3.2 -12.5 5.9 -5.6 2.8 -11.4 5.3 -13 5.6 -1.5 0.4 -3 1.1 -3.3 1.6 -0.3 0.5 -1.3 0.9 -2.2 0.9 -0.9 0 -5.8 1.6 -10.7 3.6 l-9 3.5 -10.5 2.5 c-5.8 1.4 -12.3 2.7 -14.5 3 -2.2 0.3 -5.1 0.9 -6.5 1.4 -2.6 0.9 -3.7 1 -10.7 1.3 l-4.1 0.2 -0.8 0.8 -0.7 0.7 -24.7 0 c-13.6 0 -24.9 -0.2 -25.2 -0.5z" style="stroke-opacity: 0; fill: rgba(132, 66, 255, 0.28); fill-opacity: 0.5;"/>
    <path d="M440 747.6 c-2.5 -1.2 -7.2 -4 -10.5 -6.1 -3.3 -2.2 -6.8 -4.4 -7.6 -5 -4.1 -2.5 -8.3 -5.6 -19.9 -14.4 l-12.5 -9.5 -21 -21 c-11.6 -11.6 -22.9 -23.3 -25.2 -26.1 -2.3 -2.7 -7.1 -8.5 -10.7 -12.8 -3.6 -4.3 -6.6 -8.1 -6.6 -8.5 0 -0.4 -1.7 -2.7 -3.7 -4.9 -4.8 -5.4 -7.4 -8.7 -9.4 -12.4 -0.9 -1.5 -3.6 -5.4 -6 -8.6 -7.3 -9.6 -14.6 -20.9 -15.7 -24.2 l-1.1 -3.2 0.5 -1.3 0.5 -1.4 3.2 -1.3 c1.8 -0.7 6 -3 9.4 -5.1 3.5 -2.1 6.5 -3.8 6.8 -3.8 0.3 0 4 -2 8.3 -4.3 14.1 -8 19.6 -11 26.2 -14.5 3.6 -1.9 7 -3.7 7.5 -4.2 0.6 -0.4 3.9 -2.4 7.5 -4.3 3.6 -1.9 9.2 -4.9 12.5 -6.7 3.3 -1.8 9.4 -5 13.5 -7.2 4.1 -2.2 8.1 -4.5 8.7 -5 0.7 -0.6 3.6 -2.2 6.5 -3.8 2.9 -1.5 8 -4.2 11.3 -6 3.3 -1.8 7.4 -4 9 -4.8 1.7 -0.8 3.2 -1.8 3.5 -2.2 0.3 -0.3 2.8 -1.7 5.5 -3 2.8 -1.3 6.8 -3.5 9 -4.9 2.2 -1.4 6.5 -3.8 9.5 -5.3 3 -1.5 7.8 -4.1 10.5 -5.8 2.8 -1.6 6.4 -3.6 8 -4.4 4 -2 15.5 -8.3 23.9 -13.1 3.7 -2.2 9.4 -5.4 12.5 -7 3.1 -1.7 9.9 -5.4 15.1 -8.2 5.2 -2.8 11.5 -6.2 14 -7.6 2.5 -1.4 6.8 -3.8 9.5 -5.2 2.8 -1.5 10 -5.6 16.1 -9.1 6.1 -3.5 11.5 -6.4 12.1 -6.4 0.6 0 1.3 -0.3 1.5 -0.7 0.2 -0.5 3.2 -2.3 6.8 -4.2 3.6 -1.9 7.2 -4 8.1 -4.7 0.8 -0.8 2.2 -1.4 3 -1.4 0.8 0 2.3 -0.6 3.4 -1.4 2.8 -1.9 8.7 -5.3 17 -9.6 3.9 -2 13.3 -7.2 20.9 -11.6 7.6 -4.3 14.2 -7.8 14.5 -7.7 0.3 0.1 1.3 -0.5 2.1 -1.2 0.8 -0.7 5.8 -3.6 11 -6.3 18.6 -9.6 24 -12.9 24 -14.3 0 -0.5 -1.8 -3.6 -4 -6.8 -2.2 -3.2 -4 -6.2 -4 -6.6 0 -0.4 -0.9 -1.8 -2 -3.2 l-2 -2.5 0.6 -0.9 0.5 -0.9 -0.9 0 c-0.5 0 -1.2 -0.8 -1.6 -1.7 -0.3 -1 -1.1 -2.7 -1.8 -3.8 -0.7 -1.1 -2.7 -4.2 -4.4 -7 -1.7 -2.7 -4.5 -7.2 -6.2 -9.9 -1.7 -2.7 -4.1 -6.9 -5.3 -9.5 -1.3 -2.5 -5.9 -10.2 -10.4 -17.1 -4.5 -6.9 -9.3 -14.4 -10.6 -16.6 -4.4 -7.5 -14.3 -22.5 -18.5 -27.7 -2.2 -2.9 -5.1 -7 -6.4 -9.2 -1.3 -2.2 -3.5 -4.8 -4.7 -5.8 l-2.3 -1.8 0 -1.3 0 -1.2 -5.1 -5.9 c-2.8 -3.3 -5.9 -7.2 -6.8 -8.6 -0.9 -1.4 -4.7 -6.1 -8.6 -10.4 -3.8 -4.4 -11.2 -12.6 -16.3 -18.4 -5.2 -5.9 -10.3 -11.5 -11.5 -12.6 -1.2 -1.1 -3.3 -3.5 -4.5 -5.2 l-2.3 -3.3 1.5 0.6 c0.9 0.3 1.6 1 1.6 1.5 0 0.5 0.5 0.9 1.1 0.9 2.2 0 19 13.1 39.3 30.5 25.9 22.2 62.9 63.6 84.1 94 3.3 4.7 8 11.4 10.5 14.9 2.5 3.5 5.4 7.9 6.5 9.7 3.1 5.2 3.8 6.2 6.8 10 1.5 2 2.7 3.8 2.7 4.1 0 0.3 2.9 5.3 6.5 11.2 3.6 5.8 6.5 11 6.5 11.5 0 0.5 0.6 1.4 1.4 2 0.8 0.7 2.1 2.6 3 4.4 0.9 1.8 3.4 6.1 5.6 9.6 2.2 3.4 4 6.5 4 6.7 0 0.3 1.2 2.3 2.7 4.7 5.2 8.2 7 11.3 11.3 18.7 2.4 4.1 5 8.3 5.9 9.3 l1.5 1.7 -1 1 c-1.1 1.1 -11.5 7.6 -15.6 9.7 -1.5 0.8 -3 1.8 -3.3 2.4 -0.4 0.5 -1.4 0.9 -2.4 0.9 l-1.7 0 -1.2 1.2 c-0.7 0.7 -3.6 2.6 -6.6 4.3 -3 1.6 -8.1 4.6 -11.3 6.5 -3.2 1.9 -7.9 4.6 -10.5 6 -2.5 1.4 -9.5 5.4 -15.5 8.9 -5.9 3.5 -13.3 7.7 -16.3 9.4 -3 1.7 -7.9 4.5 -10.8 6.4 -2.9 1.8 -5.6 3.3 -6.1 3.3 -0.5 0 -1.4 0.7 -2.1 1.5 l-1.2 1.5 -1.5 0 c-0.7 0 -2.6 0.8 -4.1 1.9 -1.5 1 -9.2 5.6 -17.2 10.1 -8 4.6 -16.5 9.5 -19 11.1 -2.5 1.5 -6.2 3.7 -8.2 4.8 -6.6 3.7 -13.9 7.9 -22.8 13.1 -10.5 6.2 -17.3 10 -17.7 10 -0.4 0 -10 5.6 -16.8 9.7 -1.1 0.7 -2.9 1.7 -4 2.2 -1.1 0.6 -4.2 2.4 -7 4.1 -2.7 1.7 -6.3 3.7 -8 4.6 -1.6 0.8 -4.3 2.4 -6 3.4 -1.6 1.1 -4.3 2.7 -6 3.5 -1.6 0.9 -5.2 2.9 -8 4.5 -2.7 1.7 -6.1 3.5 -7.5 4.2 -1.4 0.7 -4.6 2.7 -7.1 4.5 -2.6 1.8 -5 3.3 -5.3 3.3 -0.4 0 -5.2 2.6 -10.6 5.8 -5.5 3.1 -11.2 6.4 -12.7 7.2 -2.8 1.5 -21.4 12.3 -24.3 14.1 -0.8 0.5 -3.5 2 -6 3.4 -2.5 1.4 -5.8 3.4 -7.5 4.5 -1.6 1.1 -4.1 2.5 -5.5 3 -1.4 0.6 -5.6 3.1 -9.5 5.4 -3.8 2.4 -8 4.7 -9.2 5 l-2.3 0.7 0 1 c0 0.5 -0.5 0.9 -1 0.9 -0.6 0 -5 2.3 -9.8 5.1 -4.8 2.8 -9.3 5.4 -10.1 5.8 -0.8 0.4 -1.9 1.4 -2.5 2.3 l-0.9 1.6 7.9 11.6 c4.3 6.4 8.4 12.4 8.9 13.4 0.6 0.9 3 4.3 5.5 7.6 2.5 3.3 5.4 7.4 6.5 9.2 5 7.8 34.6 42.3 45.4 52.8 l9.1 8.8 -0.8 1.3 -0.7 1.3 -4.5 -2.2z" style="stroke-opacity: 0; fill: rgba(132, 66, 255, 0.28); fill-opacity: 0.5;"/>
    <path d="M233.8 497.3 c-2.1 -2.6 -20.8 -41 -23.8 -49.3 -0.7 -1.9 -1.7 -3.9 -2.2 -4.4 -0.4 -0.6 -0.8 -1.9 -0.8 -3.1 0 -1.2 -0.4 -2.5 -0.9 -3.1 -0.5 -0.5 -1.4 -2.5 -1.9 -4.4 -0.6 -1.9 -2.2 -6.6 -3.7 -10.5 -1.5 -3.8 -3 -8.3 -3.5 -10 -0.5 -1.6 -1.5 -5.6 -2.4 -8.8 -0.9 -3.2 -2 -6.6 -2.5 -7.5 -0.5 -1 -1 -3.5 -1.2 -5.7 l-0.3 -4 -1.3 -2.5 -1.3 -2.5 0 -4 0 -4.1 -1.1 -1.1 -1 -1 -2.1 -17.9 -2.1 -17.9 0.1 -16.5 c0.1 -14.5 0.4 -19.3 1.5 -27.5 0.2 -1.1 0.7 -4.8 1.1 -8.3 l0.9 -6.2 0.8 -0.6 0.9 -0.5 0 -2.8 c0 -1.5 0.3 -3.1 0.7 -3.5 0.4 -0.3 0.8 -1.4 0.9 -2.4 0.5 -3.7 2.3 -9.3 3.2 -10.5 0.6 -0.7 2.1 -3.9 3.3 -7.2 l2.2 -6 5.2 -8 c2.8 -4.4 5.9 -8.6 6.8 -9.4 0.9 -0.7 1.7 -1.8 1.7 -2.2 0 -1.1 5.1 -7 10.2 -11.9 8.6 -8.1 14 -13 14.4 -13 0.2 0 3.2 -2 6.7 -4.3 6.2 -4.4 26.6 -15.4 32.2 -17.5 1.7 -0.6 5.4 -2 8.4 -3.1 3 -1.1 10 -3.3 15.5 -4.7 l10.1 -2.6 13 -1.3 13 -1.2 1.9 0.9 1.8 1 1 -1 1 -1 3.5 1 3.5 0.9 1.2 -0.4 1.3 -0.5 7.7 1.3 7.7 1.4 1.2 0.9 1.2 1 5 0.7 c2.8 0.4 5.5 1.1 6 1.5 0.6 0.4 2.6 1.1 4.5 1.5 1.9 0.4 4.1 1.1 5 1.5 0.8 0.4 2.6 1.2 4 1.8 4.6 1.8 14.5 6.3 16.5 7.4 1.1 0.7 4.9 2.7 8.4 4.5 16.9 8.9 36.3 23.8 56.3 43.4 l7.8 7.7 0 1.6 0 1.7 -1.2 -0.8 c-0.7 -0.4 -1.7 -0.8 -2.3 -0.8 -1.4 -0.1 -4.7 -1.4 -6.5 -2.6 -0.8 -0.5 -2.2 -1.2 -3 -1.5 -0.8 -0.3 -2.3 -1 -3.2 -1.5 -1 -0.5 -2.7 -0.9 -3.7 -0.9 l-2 0 -0.6 -1 -0.6 -1 -2 0 -2 0 -2.4 -1.6 -2.4 -1.6 -4.7 -0.5 c-2.6 -0.2 -5.9 -1 -7.3 -1.6 l-2.6 -1.1 -8 -0.8 c-13.9 -1.4 -20 -1.1 -42 1.8 -2.2 0.3 -4.7 0.8 -5.5 1.1 -0.8 0.3 -2.2 0.7 -3 0.9 -6.6 1.4 -10.1 2.4 -13.5 3.9 -5.3 2.4 -7.1 3.1 -13.2 5.5 -2.9 1.1 -7 3 -9 4.3 -2.1 1.3 -6.3 3.6 -9.3 5.1 -3 1.5 -8.8 5.3 -12.9 8.3 l-7.4 5.6 -10.4 10.5 c-5.8 5.7 -10.9 11.4 -11.4 12.6 -1.3 2.8 -2.8 5.2 -6.6 10.8 -1.8 2.6 -3.3 5.1 -3.3 5.5 0 0.5 -1.2 3.4 -2.7 6.4 -4.2 8.1 -5.9 12.8 -7.3 19.4 -0.8 3.3 -1.5 6.5 -1.7 7 -0.1 0.6 -1.3 6.4 -2.6 13 l-2.3 12 0.2 6.7 0.2 6.8 -0.8 0.5 -0.8 0.5 1 3.4 1.1 3.4 -0.8 1.9 c-0.5 1 -0.7 2.3 -0.5 2.8 0.1 0.6 0.4 2.8 0.6 5 0.2 2.2 1.2 11.4 2.3 20.6 l1.9 16.5 1.4 3.5 1.5 3.4 -0.5 1.4 -0.4 1.3 1.5 5.2 c0.9 2.8 2.1 7.1 2.7 9.6 0.7 2.5 1.8 6.1 2.6 8 0.7 1.9 1.6 5.3 1.9 7.5 0.4 2.2 1.2 5.1 1.8 6.4 l1.2 2.3 -2.4 1.9 -2.3 1.9 -1.9 0 -1.8 0 -0.6 1 c-0.4 0.6 -2.8 2.1 -5.3 3.3 -4.6 2.3 -8.1 4.1 -11.2 5.9 -0.8 0.4 -3.5 1.8 -6 2.9 -2.5 1.1 -5.2 2.6 -6 3.4 -0.8 0.7 -2.9 1.6 -4.6 1.9 l-3 0.7 -1.6 -1.8z" style="stroke: rgb(44, 22, 85); fill: rgba(132, 66, 255, 0.28); fill-opacity: 0.5; stroke-opacity: 0;"/>
  </g>
  <g fill="#371f64"/>
</svg>