<svg width="55" height="54" viewBox="0 0 55 54" fill="none" xmlns="http://www.w3.org/2000/svg">
<path opacity="0.3" d="M27.8597 41.6494C26.7719 39.7967 26.1723 38.2092 26.0609 36.887C25.9297 35.5311 26.1118 34.4257 26.6073 33.5709C27.1217 32.6776 27.8715 32.0082 28.8567 31.5628C29.8222 31.0837 30.8477 30.7778 31.9334 30.645C33.4843 30.4554 34.9989 30.4868 36.4769 30.7393C37.9353 30.9581 39.3579 31.4701 40.745 32.2753C42.151 33.0421 43.5218 34.1381 44.8573 35.5634C46.1928 36.9886 47.4935 38.7792 48.7593 40.9351L33.3917 44.2764C34.0618 45.2054 34.8273 45.9783 35.6881 46.5951C36.568 47.1735 37.4949 47.6197 38.469 47.9339C39.443 48.248 40.406 48.4371 41.3579 48.5013C42.3098 48.5654 43.2317 48.5429 44.1234 48.4339C45.5968 48.2537 46.9033 47.8954 48.0428 47.3589C49.1823 46.8224 49.9235 46.2444 50.2662 45.6248L52.7371 47.9221C52.6634 48.2922 52.4541 48.6788 52.1091 49.0821C51.764 49.4853 51.2924 49.8498 50.6941 50.1757C50.1156 50.5353 49.4007 50.8393 48.5492 51.0879C47.7563 51.3653 46.8752 51.5633 45.9058 51.6819C44.5488 51.8478 43.0829 51.8285 41.5083 51.6239C39.9336 51.4193 38.3463 50.9455 36.7465 50.2024C35.1466 49.4594 33.5918 48.4039 32.0822 47.036C30.5528 45.6345 29.1453 43.8389 27.8597 41.6494ZM31.2924 41.3379L43.3757 38.5607C42.4065 36.9101 41.1311 35.658 39.5494 34.8044C37.948 33.9171 36.0228 33.6109 33.7739 33.8859C32.708 34.0524 31.8768 34.3707 31.2801 34.8408C30.7222 35.3061 30.3399 35.8583 30.1333 36.4973C29.9069 37.1027 29.8657 37.7757 30.0096 38.5162C30.1535 39.2568 30.4431 39.9976 30.8782 40.7387C31.0364 41.0082 31.1745 41.2079 31.2924 41.3379Z" fill="white"/>
<path d="M23.8597 39.6494C22.7719 37.7967 22.1723 36.2092 22.0609 34.887C21.9297 33.5311 22.1118 32.4257 22.6073 31.5709C23.1217 30.6776 23.8715 30.0082 24.8567 29.5628C25.8222 29.0837 26.8477 28.7778 27.9334 28.645C29.4843 28.4554 30.9989 28.4868 32.4769 28.7393C33.9353 28.9581 35.3579 29.4701 36.745 30.2753C38.151 31.0421 39.5218 32.1381 40.8573 33.5634C42.1928 34.9886 43.4935 36.7792 44.7593 38.9351L29.3917 42.2764C30.0618 43.2054 30.8273 43.9783 31.6881 44.5951C32.568 45.1735 33.4949 45.6197 34.469 45.9339C35.443 46.248 36.406 46.4371 37.3579 46.5013C38.3098 46.5654 39.2317 46.5429 40.1234 46.4339C41.5968 46.2537 42.9033 45.8954 44.0428 45.3589C45.1823 44.8224 45.9235 44.2444 46.2662 43.6248L48.7371 45.9221C48.6634 46.2922 48.4541 46.6788 48.1091 47.0821C47.764 47.4853 47.2924 47.8498 46.6941 48.1757C46.1156 48.5353 45.4007 48.8393 44.5492 49.0879C43.7563 49.3653 42.8752 49.5633 41.9058 49.6819C40.5488 49.8478 39.0829 49.8285 37.5083 49.6239C35.9336 49.4193 34.3463 48.9455 32.7465 48.2024C31.1466 47.4594 29.5918 46.4039 28.0822 45.036C26.5528 43.6345 25.1453 41.8389 23.8597 39.6494ZM27.2924 39.3379L39.3757 36.5607C38.4065 34.9101 37.1311 33.658 35.5494 32.8044C33.948 31.9171 32.0228 31.6109 29.7739 31.8859C28.708 32.0524 27.8768 32.3707 27.2801 32.8408C26.7222 33.3061 26.3399 33.8583 26.1333 34.4973C25.9069 35.1027 25.8657 35.7757 26.0096 36.5162C26.1535 37.2568 26.4431 37.9976 26.8782 38.7387C27.0364 39.0082 27.1745 39.2079 27.2924 39.3379Z" fill="white"/>
</svg>
